Coordinates
version=1
nRows=18
nColumns=28
inDegrees=yes

Units are S.I. units (second, meters, Newtons, ...)
Angles are in degrees.

endheader
time	pelvis_tilt	pelvis_list	pelvis_rotation	pelvis_tx	pelvis_ty	pelvis_tz	hip_flexion_r	hip_adduction_r	hip_rotation_r	knee_angle_r	ankle_angle_r	subtalar_angle_r	mtp_angle_r	hip_flexion_l	hip_adduction_l	hip_rotation_l	knee_angle_l	socket_flexion	socket_adduction	socket_rotation	socket_tx	socket_ty	socket_tz	foot_flex	lumbar_extension	lumbar_bending	lumbar_rotation
      0.00000000	     -1.13097807	     -0.11949679	     -6.96454153	     -0.78762604	      0.96392437	      0.28923608	    -22.50054937	     -0.84339599	      5.30852293	     -6.82863626	     -4.90142216	    -16.50213994	     23.92214936	     26.06410530	     -0.46264523	      2.25453838	     -6.76759513	     -5.15298630	     -5.24742047	      0.29414216	      0.00000000	      0.00203139	      0.00000000	     -1.53132336	     -7.05382433	      0.63757199	      3.02163576
      0.00416667	     -1.13588347	     -0.04820298	     -7.04807981	     -0.78149372	      0.96272015	      0.28898031	    -22.69800565	     -0.99470250	      5.26214826	     -7.04414501	     -5.11325517	    -16.48099566	     23.96603432	     26.06414360	     -0.42829363	      2.23592112	     -7.06824780	     -4.96578926	     -5.13922057	      0.10229641	      0.00000000	      0.00161972	      0.00000000	     -2.00912000	     -6.94433257	      0.51168550	      3.05370168
      0.00833333	     -1.12171624	      0.07376422	     -7.13898665	     -0.77517992	      0.96154125	      0.28867266	    -22.85261308	     -1.21236014	      5.13394465	     -7.37313658	     -5.41191260	    -16.46960091	     24.09137671	     26.07613413	     -0.33393642	      2.21894195	     -7.48861112	     -4.85046406	     -5.02201145	     -0.13833336	      0.00000000	      0.00131949	      0.00000000	     -2.52871430	     -6.89011696	      0.32909349	      3.15118575
      0.01250000	     -1.15479219	      0.15882408	     -7.11199206	     -0.76868544	      0.96013742	      0.28815550	    -22.93043824	     -1.37732229	      4.66626985	     -7.75261748	     -5.78088080	    -16.33745313	     26.41784791	     26.37777302	     -0.23113820	      1.86942885	     -8.64666359	     -5.21045012	     -4.96584933	      0.01685796	      0.00000000	      0.00101584	      0.00000000	     -3.04097018	     -6.77594915	      0.18996232	      3.27967094
      0.01666667	     -1.15348730	      0.23302917	     -7.20130619	     -0.76198084	      0.95890346	      0.28781173	    -23.07155223	     -1.54150356	      4.59037542	     -8.11759494	     -6.01623431	    -16.32750737	     26.44891341	     26.36233845	     -0.18731979	      1.79279623	     -8.95475097	     -4.98729009	     -4.86771029	     -0.12733832	      0.00000000	      0.00050690	      0.00000000	     -3.65826516	     -6.69394199	      0.07357723	      3.31091608
      0.02083333	     -1.14054189	      0.34303857	     -7.28177803	     -0.75518210	      0.95771271	      0.28741567	    -23.18241590	     -1.74883756	      4.45948557	     -8.55089864	     -6.33941890	    -16.30955404	     26.51780866	     26.36043309	     -0.09880061	      1.69064042	     -9.33955067	     -4.79492039	     -4.75600874	     -0.27894105	      0.00000000	      0.00005717	      0.00000000	     -4.26941180	     -6.62856173	     -0.10732901	      3.37790102
      0.02500000	     -1.16160733	      0.54856868	     -7.32098335	     -0.74813138	      0.95638224	      0.28703701	    -23.18945243	     -2.07443436	      3.90863853	     -9.07634900	     -6.84128692	    -16.07558170	     28.91684881	     26.69219543	      0.06886280	      0.74258810	    -10.75888783	     -5.32308038	     -4.77947823	      0.35048930	      0.00000000	     -0.00015097	      0.00000000	     -4.78817210	     -6.49909757	     -0.40659457	      3.62505915
      0.02916667	     -1.15931345	      0.63104789	     -7.36586619	     -0.74109978	      0.95522285	      0.28657621	    -23.27862263	     -2.23574908	      3.81611114	     -9.54202917	     -7.16045520	    -16.06596139	     28.95070100	     26.67952382	      0.14638688	      0.65740693	    -11.08607798	     -5.05784901	     -4.68795873	      0.23823866	      0.00000000	     -0.00074793	      0.00000000	     -5.43976476	     -6.44295831	     -0.53685739	      3.63781336
      0.03333333	     -1.15011320	      0.74019274	     -7.38620423	     -0.73403963	      0.95409719	      0.28606444	    -23.34816907	     -2.41750341	      3.70880468	    -10.05423400	     -7.53768675	    -16.04669729	     28.99906492	     26.67379770	      0.25667185	      0.56317678	    -11.44764637	     -4.79632625	     -4.57947619	      0.17572227	      0.00000000	     -0.00133565	      0.00000000	     -6.01029043	     -6.36874274	     -0.69988888	      3.66502527
      0.03750000	     -1.20292105	      1.04804723	     -7.39247807	     -0.72676786	      0.95297110	      0.28556846	    -23.24490541	     -2.82063538	      3.22129442	    -10.69957002	     -8.33013418	    -16.03604242	     29.42404496	     26.81001994	      0.56899264	      0.15738962	    -12.09102400	     -4.75113968	     -4.54961188	      0.27917780	      0.00000000	     -0.00153212	      0.00000000	     -6.50747799	     -6.19354831	     -1.13664495	      3.79609575
      0.04166667	     -1.19079336	      1.13310456	     -7.40363293	     -0.71966409	      0.95196696	      0.28501135	    -23.25565573	     -2.97964053	      3.10939274	    -11.29227182	     -8.75625519	    -16.00041774	     29.56628398	     26.80332268	      0.66272076	     -0.01294961	    -12.49159718	     -4.51936514	     -4.47213677	      0.31144492	      0.00000000	     -0.00221784	      0.00000000	     -7.17286172	     -6.16193184	     -1.28201209	      3.79181219
      0.04583333	     -1.19325391	      1.31851396	     -7.41708133	     -0.71251830	      0.95106882	      0.28448860	    -23.14147480	     -3.24994929	      2.83533800	    -12.03845633	     -9.43798775	    -15.96135464	     29.77863930	     26.83554743	      0.85396558	     -0.31063235	    -12.98107578	     -4.34653358	     -4.40946632	      0.37277831	      0.00000000	     -0.00267029	      0.00000000	     -7.66352029	     -6.11877028	     -1.55776780	      3.80444357
      0.05000000	     -1.31397378	      1.59152089	     -7.39729033	     -0.70513116	      0.94992387	      0.28408513	    -22.87000688	     -3.64014858	      2.20520186	    -12.79254757	    -10.33382473	    -15.88839056	     33.69354127	     27.51649955	      0.99482446	     -2.36839357	    -15.31776612	     -5.44868483	     -4.71652836	      2.08570920	      0.00000000	     -0.00254097	      0.00000000	     -8.02030965	     -5.81381375	     -1.93157158	      3.86486039
      0.05416667	     -1.32967594	      1.79937683	     -7.34476696	     -0.69796730	      0.94914377	      0.28344715	    -22.70595163	     -3.91350812	      1.93455316	    -13.57760184	    -11.10966500	    -15.86812384	     33.81244589	     27.53502412	      1.24158505	     -2.51271841	    -15.69128783	     -5.16074665	     -4.64721073	      2.07709500	      0.00000000	     -0.00300707	      0.00000000	     -8.40021040	     -5.73384145	     -2.22765497	      3.85742251
      0.05833333	     -1.30477566	      1.94157722	     -7.28386085	     -0.69092855	      0.94854808	      0.28273566	    -22.56265536	     -4.10665540	      1.83167691	    -14.39205833	    -11.76363472	    -15.81483564	     33.86582400	     27.50312213	      1.43835205	     -2.59472196	    -16.06590579	     -4.85777074	     -4.61050197	      2.14593307	      0.00000000	     -0.00355534	      0.00000000	     -8.77993967	     -5.73880559	     -2.46917399	      3.83413349
      0.06250000	     -1.29486822	      2.15175988	     -7.22807316	     -0.68386496	      0.94799131	      0.28210986	    -22.33331471	     -4.38141748	      1.60972459	    -15.30040696	    -12.62324546	    -15.75552730	     33.93137138	     27.50267992	      1.68749916	     -2.78861464	    -16.48700572	     -4.58718957	     -4.55774282	      2.19592943	      0.00000000	     -0.00398348	      0.00000000	     -9.00705033	     -5.70730894	     -2.76222207	      3.80385383
      0.06666667	     -1.56366595	      2.50238500	     -7.09838154	     -0.67643489	      0.94705526	      0.28147552	    -21.76868905	     -4.80223805	      1.02835984	    -16.23007729	    -13.96675504	    -15.93815143	     36.26729716	     28.19403846	      1.94524467	     -4.26575420	    -18.33092998	     -5.30498225	     -4.82422886	      3.34863687	      0.00000000	     -0.00365534	      0.00000000	     -9.16513242	     -5.23042112	     -3.21279703	      3.71380913
      0.07083333	     -1.50558036	      2.66954814	     -7.00476218	     -0.66951623	      0.94679652	      0.28076147	    -21.51071807	     -5.01366938	      0.95650782	    -17.23684665	    -14.80867287	    -15.83341399	     36.26154841	     28.12596871	      2.17795979	     -4.33693318	    -18.71241295	     -4.98230187	     -4.74817406	      3.36046120	      0.00000000	     -0.00410081	      0.00000000	     -9.28448547	     -5.32024189	     -3.47812656	      3.67218870
